<svg xmlns="http://www.w3.org/2000/svg" version="1.1" xmlns:xlink="http://www.w3.org/1999/xlink" width="1000" height="1000"><g clip-path="url(#SvgjsClipPath1091)"><rect width="1000" height="1000" fill="#0a0a0a"></rect><g transform="matrix(5,0,0,5,0,0)"><svg xmlns="http://www.w3.org/2000/svg" version="1.1" xmlns:xlink="http://www.w3.org/1999/xlink" width="200" height="200"><svg id="master-svg" xmlns="http://www.w3.org/2000/svg" viewBox="0 0 100 100" fill="none" stroke="#c4a484" stroke-width="5" stroke-linecap="round" stroke-linejoin="round" width="200" height="200">
      <path d="M 44 20 L 44 80"></path> 
      <path d="M 44 20 C 10 20 10 80 44 80"></path> 
      <line x1="44" y1="35" x2="24" y2="35"></line> 
      <line x1="44" y1="50" x2="20" y2="50"></line>
      <line x1="44" y1="65" x2="24" y2="65"></line>
      <path d="M 56 20 L 56 80"></path> 
      <path d="M 56 20 C 90 20 90 80 56 80"></path> 
      <line x1="56" y1="35" x2="76" y2="35"></line> 
      <line x1="56" y1="50" x2="80" y2="50"></line>
      <line x1="56" y1="65" x2="76" y2="65"></line>
    </svg></svg></g></g><defs><clipPath id="SvgjsClipPath1091"><rect width="1000" height="1000" x="0" y="0" rx="350" ry="350"></rect></clipPath></defs></svg>